# xmcd
#
# Track frame offsets: 
#        150
#        12994
#        24824
#        36945
#        46421
#        60303
#        74132
#        87121
#        103267
#        117744
#        130344
#        146173
#        160884
#        176152
#        192600
#        208212
#        227865
#        243977
#        256341
#        269838
#        285579
#        303320
#
# Disc length: 4242 seconds
#
# Revision: 0
# Processed by: cddbd v1.5.2PL0 Copyright (c) Steve Scherf et al.
# Submitted via: ExactAudioCopy v0.99pb3
#
DISCID=56109016
DTITLE=Main Ingredient - Spinning Around - The Singles 1967-1975
DYEAR=2007
DGENRE=Soul
TTITLE0=I´m better off without you - The Insiders
TTITLE1=If you had a heart - The Insiders
TTITLE2=I´m just a man - The Insiders
TTITLE3=I was born to lose you
TTITLE4=Brotherly love
TTITLE5=The girl i left behind
TTITLE6=You´ve been my inspiration
TTITLE7=I´m so proud
TTITLE8=Spinning around (I must be falling in love)
TTITLE9=Magic shoes
TTITLE10=Black seeds keep on growing
TTITLE11=I´m leaving this time
TTITLE12=Everybody plays the fool
TTITLE13=You´ve got to take it (if you want it)
TTITLE14=You can call me rover
TTITLE15=Girl blue
TTITLE16=Just don´t want to be lonely
TTITLE17=Happiness is just around the bend
TTITLE18=California my way
TTITLE19=Rolling down a mountainside
TTITLE20=The good old days (Do you remember)
TTITLE21=Shame on the world
EXTD=
EXTT0=
EXTT1=
EXTT2=
EXTT3=
EXTT4=
EXTT5=
EXTT6=
EXTT7=
EXTT8=
EXTT9=
EXTT10=
EXTT11=
EXTT12=
EXTT13=
EXTT14=
EXTT15=
EXTT16=
EXTT17=
EXTT18=
EXTT19=
EXTT20=
EXTT21=
PLAYORDER=
